<mxfile host="Electron" agent="Mozilla/5.0 (Windows NT 10.0; Win64; x64) AppleWebKit/537.36 (KHTML, like Gecko) draw.io/26.0.9 Chrome/128.0.6613.186 Electron/32.2.5 Safari/537.36" version="26.0.9">
  <diagram name="Page-1" id="c6fYKLODhFM4lHNlljs1">
    <mxGraphModel dx="473" dy="305" grid="1" gridSize="10" guides="1" tooltips="1" connect="1" arrows="1" fold="1" page="1" pageScale="1" pageWidth="570" pageHeight="940" math="0" shadow="0">
      <root>
        <mxCell id="0" />
        <mxCell id="1" parent="0" />
        <mxCell id="UvzrpG0BT-J_TLc9Q5YP-1" value="User" style="rounded=1;whiteSpace=wrap;html=1;fillColor=none;" vertex="1" parent="1">
          <mxGeometry x="160" y="210" width="120" height="30" as="geometry" />
        </mxCell>
        <mxCell id="UvzrpG0BT-J_TLc9Q5YP-2" value="Browser" style="rounded=1;whiteSpace=wrap;html=1;fillColor=none;" vertex="1" parent="1">
          <mxGeometry x="160" y="300" width="120" height="40" as="geometry" />
        </mxCell>
        <mxCell id="UvzrpG0BT-J_TLc9Q5YP-3" value="Web Server" style="rounded=1;whiteSpace=wrap;html=1;fillColor=none;" vertex="1" parent="1">
          <mxGeometry x="390" y="300" width="120" height="40" as="geometry" />
        </mxCell>
        <mxCell id="UvzrpG0BT-J_TLc9Q5YP-5" value="" style="endArrow=classic;html=1;rounded=0;exitX=0.75;exitY=1;exitDx=0;exitDy=0;entryX=0.75;entryY=0;entryDx=0;entryDy=0;bendable=0;" edge="1" parent="1" source="UvzrpG0BT-J_TLc9Q5YP-1" target="UvzrpG0BT-J_TLc9Q5YP-2">
          <mxGeometry width="50" height="50" relative="1" as="geometry">
            <mxPoint x="260" y="340" as="sourcePoint" />
            <mxPoint x="310" y="290" as="targetPoint" />
          </mxGeometry>
        </mxCell>
        <mxCell id="UvzrpG0BT-J_TLc9Q5YP-6" value="URL" style="text;html=1;align=center;verticalAlign=middle;whiteSpace=wrap;rounded=0;" vertex="1" parent="1">
          <mxGeometry x="250" y="270" width="40" height="10" as="geometry" />
        </mxCell>
        <mxCell id="UvzrpG0BT-J_TLc9Q5YP-7" value="" style="endArrow=classic;html=1;rounded=0;exitX=1;exitY=0.25;exitDx=0;exitDy=0;entryX=0;entryY=0.25;entryDx=0;entryDy=0;bendable=0;" edge="1" parent="1" source="UvzrpG0BT-J_TLc9Q5YP-2" target="UvzrpG0BT-J_TLc9Q5YP-3">
          <mxGeometry width="50" height="50" relative="1" as="geometry">
            <mxPoint x="260" y="260" as="sourcePoint" />
            <mxPoint x="260" y="310" as="targetPoint" />
          </mxGeometry>
        </mxCell>
        <mxCell id="UvzrpG0BT-J_TLc9Q5YP-8" value="&lt;font style=&quot;font-size: 10px;&quot;&gt;HTTP request&lt;/font&gt;" style="text;html=1;align=center;verticalAlign=middle;whiteSpace=wrap;rounded=0;" vertex="1" parent="1">
          <mxGeometry x="301" y="293" width="70" height="10" as="geometry" />
        </mxCell>
        <mxCell id="UvzrpG0BT-J_TLc9Q5YP-10" value="" style="endArrow=classic;html=1;rounded=0;exitX=0;exitY=0.75;exitDx=0;exitDy=0;entryX=1;entryY=0.75;entryDx=0;entryDy=0;bendable=0;" edge="1" parent="1" source="UvzrpG0BT-J_TLc9Q5YP-3" target="UvzrpG0BT-J_TLc9Q5YP-2">
          <mxGeometry width="50" height="50" relative="1" as="geometry">
            <mxPoint x="290" y="320" as="sourcePoint" />
            <mxPoint x="400" y="320" as="targetPoint" />
          </mxGeometry>
        </mxCell>
        <mxCell id="UvzrpG0BT-J_TLc9Q5YP-11" value="&lt;span style=&quot;font-size: 10px;&quot;&gt;Copy Of HTML File&lt;/span&gt;" style="text;html=1;align=center;verticalAlign=middle;whiteSpace=wrap;rounded=0;" vertex="1" parent="1">
          <mxGeometry x="292" y="338" width="88" height="10" as="geometry" />
        </mxCell>
        <mxCell id="UvzrpG0BT-J_TLc9Q5YP-12" value="" style="endArrow=classic;html=1;rounded=0;exitX=0.25;exitY=0;exitDx=0;exitDy=0;entryX=0.25;entryY=1;entryDx=0;entryDy=0;bendable=0;" edge="1" parent="1" source="UvzrpG0BT-J_TLc9Q5YP-2" target="UvzrpG0BT-J_TLc9Q5YP-1">
          <mxGeometry width="50" height="50" relative="1" as="geometry">
            <mxPoint x="290" y="320" as="sourcePoint" />
            <mxPoint x="400" y="320" as="targetPoint" />
          </mxGeometry>
        </mxCell>
        <mxCell id="UvzrpG0BT-J_TLc9Q5YP-14" value="&lt;font style=&quot;font-size: 10px;&quot;&gt;Interprets and&lt;/font&gt;&lt;div&gt;&lt;font style=&quot;font-size: 10px;&quot;&gt;render HTML file&lt;/font&gt;&lt;/div&gt;" style="text;html=1;align=center;verticalAlign=middle;whiteSpace=wrap;rounded=0;" vertex="1" parent="1">
          <mxGeometry x="110" y="255" width="70" height="40" as="geometry" />
        </mxCell>
      </root>
    </mxGraphModel>
  </diagram>
</mxfile>
